#N canvas 827 239 527 327 12;
#X obj 159 151 netreceive -u -b;
#X msg 159 111 listen 5005;
#X obj 159 194 oscparse;
#X obj 159 233 list trim;
#X obj 159 268 route product;
#X obj 159 314 route name nutrition_grade nutriments, f 33;
#X obj 332 358 route sugars fibers energy carbohydrates fat saturated_fat proteins;
#X obj 313 96 array define inputbuffer 8;
#X f 23;
#X obj 313 124 array define outputbuffer 8;
#X f 24;
#X obj 262 504 tabwrite inputbuffer;
#X obj 159 359 route a b c d e z;
#X msg 159 404 100;
#X msg 193 404 80;
#X msg 224 404 60;
#X msg 254 404 40;
#X msg 284 404 20;
#X msg 313 404 0;
#X obj 984 102 vsl 17 128 0 127 0 0 empty empty empty 0 -9 0 10 #e4e4e4 #4d4d4d #373737 0 1;
#X obj 1111 102 vsl 17 128 0 127 0 0 empty empty empty 0 -9 0 10 #e4e4e4 #4d4d4d #373737 0 1;
#X obj 1107 306 pack f 1;
#X obj 980 304 pack f 0;
#X obj 904 361 tabwrite outputbuffer;
#X obj 1241 102 vsl 17 128 0 127 0 0 empty empty empty 0 -9 0 10 #e4e4e4 #4d4d4d #373737 0 1;
#X obj 1372 102 vsl 17 128 0 127 0 0 empty empty empty 0 -9 0 10 #e4e4e4 #4d4d4d #373737 0 1;
#X obj 1237 306 pack f 2;
#X obj 1368 306 pack f 3;
#X obj 1501 102 vsl 17 128 0 127 0 0 empty empty empty 0 -9 0 10 #e4e4e4 #4d4d4d #373737 0 1;
#X obj 1631 102 vsl 17 128 0 127 0 0 empty empty empty 0 -9 0 10 #e4e4e4 #4d4d4d #373737 0 1;
#X obj 1759 102 vsl 17 128 0 127 0 0 empty empty empty 0 -9 0 10 #e4e4e4 #4d4d4d #373737 0 1;
#X obj 1885 102 vsl 17 128 0 127 0 0 empty empty empty 0 -9 0 10 #e4e4e4 #4d4d4d #373737 0 1;
#X obj 1497 306 pack f 4;
#X obj 1627 306 pack f 5;
#X obj 1755 306 pack f 6;
#X obj 1881 306 pack f 7;
#X obj 523 96 fluid.mlpregressor regressor -hiddenlayers 5 -activation 1 -outputactivation 1 -batchsize 1 -maxiter 10000 -learnrate 0.1 -validation 0;
#X msg 529 247 addpoint \$1 inputbuffer;
#X msg 693 247 addpoint \$1 outputbuffer;
#X obj 529 288 fluid.dataset inputdata;
#X obj 693 288 fluid.dataset ouputdata;
#X obj 529 166 bng 25 250 50 0 empty empty empty 17 7 0 10 #e4e4e4 #4d4d4d #373737;
#X obj 529 206 f;
#X obj 572 206 + 1;
#X obj 58 298 bng 25 250 50 0 empty empty empty 17 7 0 10 #e4e4e4 #4d4d4d #373737;
#X msg 60 343 0;
#X text 23 252 Setting the control variables to 0, f 17;
#X text 159 65 OSC Port and Message Routing, f 17;
#X text 984 50 Neural Network Synth Sliders, f 17;
#X text 313 65 Array for storing the values;
#X text 523 65 Regressor for latent space exploration;
#X obj 1107 257 scale 0 127 -3 3, f 15;
#X obj 1237 257 scale 0 127 -3 3, f 15;
#X obj 1368 257 scale 0 127 -3 3, f 15;
#X obj 1497 257 scale 0 127 -3 3, f 15;
#X obj 1627 257 scale 0 127 -3 3, f 15;
#X obj 1755 257 scale 0 127 -3 3, f 15;
#X obj 1881 257 scale 0 127 -3 3, f 15;
#X obj 1165 390 sig~;
#X obj 1293 390 sig~;
#X obj 1428 390 sig~;
#X obj 1555 390 sig~;
#X obj 1689 390 sig~;
#X obj 1810 390 sig~;
#X obj 1934 390 sig~;
#X text 572 164 Add points to buffer;
#X obj 1044 535 dac~;
#X obj 1044 485 nn~ crozzoli decode;
#X obj 1086 361 * -1;
#X obj 980 257 scale 0 127 -3 3;
#X obj 1210 361 * -1;
#X obj 1339 361 * -1;
#X obj 1472 361 * -1;
#X obj 1600 361 * -1;
#X obj 1734 361 * -1;
#X obj 1858 361 * -1;
#X obj 1985 361 * -1;
#X obj 1044 390 sig~;
#X obj 1210 390 sig~;
#X obj 1339 390 sig~;
#X obj 1472 390 sig~;
#X obj 1600 390 sig~;
#X obj 1734 390 sig~;
#X obj 1858 390 sig~;
#X obj 1985 390 sig~;
#X obj 1086 390 sig~;
#X obj 262 441 pack f 0;
#X obj 331 441 pack f 1;
#X obj 398 441 pack f 2;
#X obj 467 441 pack f 3;
#X obj 536 441 pack f 4;
#X obj 606 441 pack f 5;
#X obj 675 441 pack f 6;
#X obj 745 441 pack f 7;
#X connect 0 0 2 0;
#X connect 1 0 0 0;
#X connect 2 0 3 0;
#X connect 3 0 4 0;
#X connect 4 0 5 0;
#X connect 5 1 10 0;
#X connect 5 2 6 0;
#X connect 6 0 85 0 32.................f..........H..........D....;
#X connect 6 1 86 0 32.................f....v.....H....L.....D....;
#X connect 6 2 87 0 32.................f....nA....H....Z.....D....;
#X connect 6 3 88 0 32.................f....nB....H....p.....D....;
#X connect 6 4 89 0 32.................f....nC....H....5.....D....;
#X connect 6 5 90 0 32.................b....jD....G....IA....D....;
#X connect 6 6 91 0 32.................S....jE...vD....YA....D....;
#X connect 10 0 11 0 32.................M.........PC.........nA....;
#X connect 10 1 12 0 32.................M....HA...PC....R....nA....;
#X connect 10 2 13 0 32.................M.....B...PC....f....nA....;
#X connect 10 3 14 0 32.................M....zB...PC....s....nA....;
#X connect 10 4 15 0 32.................M....nC...PC....5....nA....;
#X connect 10 5 16 0 32.................M....PD...PC....DA...nA....;
#X connect 11 0 84 0 32.................I....bF...PB....mA...HA....;
#X connect 12 0 84 0 32.................I....TD...PB....EA...HA....;
#X connect 13 0 84 0 32.................I....XB...PB....l....HA....;
#X connect 14 0 84 0 32.................I....f....PB....H....HA....;
#X connect 15 0 84 0 32.................I....r9+++eB....q++++KA....;
#X connect 16 0 84 0 32.................I.....8+++eB....P++++KA....;
#X connect 17 0 67 0;
#X connect 18 0 49 0;
#X connect 19 0 21 0 32.................S....z6++++D....89+++WB....;
#X connect 20 0 21 0 32.................S.........vD.........TB....;
#X connect 22 0 50 0;
#X connect 23 0 51 0;
#X connect 24 0 21 0 32.................S....n2++++D....58+++WB....;
#X connect 25 0 21 0 32.................S....by++++D....27+++WB....;
#X connect 26 0 52 0;
#X connect 27 0 53 0;
#X connect 28 0 54 0;
#X connect 29 0 55 0;
#X connect 30 0 21 0 32.................S....7t++++D....u6+++WB....;
#X connect 31 0 21 0 32.................S....jp++++D....o5+++WB....;
#X connect 32 0 21 0 32.................T....Hl+++OE....h4+++eB....;
#X connect 33 0 21 0 32.................S....vG++++D....7w+++mA....;
#X connect 35 0 37 0;
#X connect 36 0 38 0;
#X connect 39 0 40 0;
#X connect 40 0 41 0;
#X connect 40 0 35 0;
#X connect 40 0 36 0;
#X connect 41 0 40 1;
#X connect 42 0 43 0;
#X connect 43 0 84 0 32.................d....vM...fG....bC....E....;
#X connect 43 0 85 0 32.................d....DR...fG....gD....E....;
#X connect 43 0 86 0 32.................a....PV...vF....jE....E....;
#X connect 43 0 87 0 32.................a....jZ...vF....oF....E....;
#X connect 43 0 88 0 32.................a....3d...vF....tG....E....;
#X connect 43 0 89 0 32.................a....Pi...vF....zH....E....;
#X connect 43 0 90 0 32.................a....jm...vF....4I....E....;
#X connect 43 0 91 0 32.................d....7q...fG....+J....E....;
#X connect 49 0 19 0;
#X connect 49 0 56 0 48.................S....rC...vD....6....XB...fN....l....nC...fb....;
#X connect 49 0 68 0 48.................U....nC...PE....5....PA...vY....T....bF...PU....;
#X connect 50 0 24 0;
#X connect 50 0 69 0 48.................U....rC...PE....6....XA...fY....V....XF...PU....;
#X connect 50 0 57 0 48.................S....fC...vD....3....XB....N....l....fC...fb....;
#X connect 51 0 25 0;
#X connect 51 0 70 0 48.................U....nC...PE....5....XA....Z....V....fF...PU....;
#X connect 51 0 58 0 48.................S....zC...vD....8....XB....O....l....vC...fb....;
#X connect 52 0 30 0;
#X connect 52 0 59 0 32.................R....bD...fD....GA...HG....;
#X connect 52 0 71 0 48.................U....nC...PE....5....bA...vY....W....bF...PU....;
#X connect 53 0 31 0;
#X connect 53 0 60 0 32.................T....bD....E....GA...HG....;
#X connect 53 0 72 0 48.................U....nC...PE....5....bA...vZ....W....rF...PU....;
#X connect 54 0 32 0;
#X connect 54 0 61 0 32.................Q....bD...PD....GA...HG....;
#X connect 54 0 73 0 48.................U....vC...PE....7.....B...vc....f....bG...PU....;
#X connect 55 0 33 0;
#X connect 55 0 62 0 32.................R....bD...fD....GA...HG....;
#X connect 55 0 74 0 48.................U....zC...PE....8....bA...fd....W....nG...PU....;
#X connect 65 0 64 0;
#X connect 65 0 64 1;
#X connect 66 0 83 0;
#X connect 67 0 20 0;
#X connect 67 0 75 0 48.................S....HD...vD....BA...XB....P....l.....D...fb....;
#X connect 67 0 66 0 48.................P....jC....D....4....7....fZ....O....nF...PU....;
#X connect 68 0 76 0;
#X connect 69 0 77 0;
#X connect 70 0 78 0;
#X connect 71 0 79 0;
#X connect 72 0 80 0;
#X connect 73 0 81 0;
#X connect 74 0 82 0;
#X connect 84 0 9 0 32.................V.........fE.........vB....;
#X connect 85 0 9 0 32.................V....r6+++uE....69+++yB....;
#X connect 86 0 9 0 32.................V....j2+++uE....48+++yB....;
#X connect 87 0 9 0 32.................O....Ty++++C....07+++yB....;
#X connect 88 0 9 0 32.................V....7t+++uE....u6+++yB....;
#X connect 89 0 9 0 32.................O....jp++++C....o5+++yB....;
#X connect 90 0 9 0 32.................O....Pl++++C....j4+++yB....;
#X connect 91 0 9 0 32.................O....3g++++C....d3+++yB....;
