#N canvas 827 239 527 327 12;
#X obj 70 110 netreceive -u -b;
#X msg 70 70 listen 5005;
#X obj 70 153 oscparse;
#X obj 70 192 list trim;
#X obj 70 227 route product;
#X obj 70 273 route name nutrition_grade nutriments, f 33;
#X obj 243 317 route sugars fibers energy carbohydrates fat saturated_fat proteins;
#X obj 103 502 print;
#X obj 243 400 pack f 1;
#X obj 309 400 pack f 2;
#X obj 377 400 pack f 3;
#X obj 447 400 pack f 4;
#X obj 517 400 pack f 5;
#X obj 586 400 pack f 6;
#X obj 656 400 pack f 7;
#X obj 661 488 array define inputbuffer 8;
#X obj 661 516 array define outputbuffer 8;
#X f 24;
#X obj 173 463 tabwrite inputbuffer;
#X obj 70 318 route a b c d e z;
#X msg 70 363 100;
#X msg 104 363 80;
#X msg 135 363 60;
#X msg 165 363 40;
#X msg 195 363 20;
#X msg 224 363 0;
#X obj 173 400 pack f 0;
#X connect 0 0 2 0;
#X connect 1 0 0 0;
#X connect 2 0 3 0;
#X connect 3 0 4 0;
#X connect 4 0 5 0;
#X connect 5 1 18 0;
#X connect 5 2 6 0;
#X connect 6 0 8 0 32.................f..........H..........D....;
#X connect 6 1 9 0 32.................f....v.....H....L.....D....;
#X connect 6 2 10 0 32.................f....nA....H....Z.....D....;
#X connect 6 3 11 0 32.................f....nB....H....p.....D....;
#X connect 6 4 12 0 32.................f....nC....H....5.....D....;
#X connect 6 5 13 0 32.................b....jD....G....IA....D....;
#X connect 6 6 14 0 32.................S....jE...vD....YA....D....;
#X connect 8 0 17 0 32.................V....r6+++uE....69+++yB....;
#X connect 9 0 17 0 32.................V....j2+++uE....48+++yB....;
#X connect 10 0 17 0 32.................O....Ty++++C....07+++yB....;
#X connect 11 0 17 0 32.................V....7t+++uE....u6+++yB....;
#X connect 12 0 17 0 32.................O....jp++++C....o5+++yB....;
#X connect 13 0 17 0 32.................O....Pl++++C....j4+++yB....;
#X connect 14 0 17 0 32.................O....3g++++C....d3+++yB....;
#X connect 18 0 19 0 32.................M.........PC.........nA....;
#X connect 18 1 20 0 32.................M....HA...PC....R....nA....;
#X connect 18 2 21 0 32.................M.....B...PC....f....nA....;
#X connect 18 3 22 0 32.................M....zB...PC....s....nA....;
#X connect 18 4 23 0 32.................M....nC...PC....5....nA....;
#X connect 18 5 24 0 32.................M....PD...PC....DA...nA....;
#X connect 19 0 25 0 32.................I....bF...PB....mA...HA....;
#X connect 20 0 25 0 32.................I....TD...PB....EA...HA....;
#X connect 21 0 25 0 32.................I....XB...PB....l....HA....;
#X connect 22 0 25 0 32.................I....f....PB....H....HA....;
#X connect 23 0 25 0 32.................I....r9+++eB....q++++KA....;
#X connect 24 0 25 0 32.................I.....8+++eB....P++++KA....;
#X connect 25 0 17 0 32.................V.........fE.........vB....;
