#N canvas 827 239 527 327 12;
#X obj 228 150 netreceive -u -b;
#X msg 228 110 listen 5005;
#X obj 228 193 oscparse;
#X obj 228 232 list trim;
#X obj 228 267 route product;
#X obj 984 112 vsl 17 128 0 127 0 0 empty empty empty 0 -9 0 10 #e4e4e4 #4d4d4d #373737 0 1;
#X obj 1111 112 vsl 17 128 0 127 0 0 empty empty empty 0 -9 0 10 #e4e4e4 #4d4d4d #373737 0 1;
#X obj 1107 263 pack f 1;
#X obj 980 261 pack f 0;
#X obj 693 332 tabwrite outputbuffer;
#X obj 1241 112 vsl 17 128 0 127 0 0 empty empty empty 0 -9 0 10 #e4e4e4 #4d4d4d #373737 0 1;
#X obj 1372 112 vsl 17 128 0 127 0 0 empty empty empty 0 -9 0 10 #e4e4e4 #4d4d4d #373737 0 1;
#X obj 1237 263 pack f 2;
#X obj 1368 263 pack f 3;
#X obj 1501 112 vsl 17 128 0 127 0 0 empty empty empty 0 -9 0 10 #e4e4e4 #4d4d4d #373737 0 1;
#X obj 1631 112 vsl 17 128 0 127 0 0 empty empty empty 0 -9 0 10 #e4e4e4 #4d4d4d #373737 0 1;
#X obj 1759 112 vsl 17 128 0 127 0 0 empty empty empty 0 -9 0 10 #e4e4e4 #4d4d4d #373737 0 1;
#X obj 1885 112 vsl 17 128 0 127 0 0 empty empty empty 0 -9 0 10 #e4e4e4 #4d4d4d #373737 0 1;
#X obj 1497 263 pack f 4;
#X obj 1627 263 pack f 5;
#X obj 1755 263 pack f 6;
#X obj 1881 263 pack f 7;
#X msg 548 693 addpoint \$1 inputbuffer, f 22;
#X msg 712 693 addpoint \$1 outputbuffer;
#X obj 548 734 fluid.dataset inputdata;
#X obj 548 612 bng 25 250 50 0 empty empty empty 17 7 0 10 #e4e4e4 #4d4d4d #373737;
#X obj 548 652 f;
#X obj 591 652 + 1;
#X text 228 59 OSC Port and Message Routing, f 17;
#X text 831 18 Neural Network Synth Sliders, f 17;
#X text 382 59 Array for storing the values;
#X text 248 585 Regressor for latent space exploration;
#X obj 1107 361 scale 0 127 -3 3, f 15;
#X obj 1237 361 scale 0 127 -3 3, f 15;
#X obj 1368 361 scale 0 127 -3 3, f 15;
#X obj 1497 361 scale 0 127 -3 3, f 15;
#X obj 1627 361 scale 0 127 -3 3, f 15;
#X obj 1755 361 scale 0 127 -3 3, f 15;
#X obj 1881 361 scale 0 127 -3 3, f 15;
#X obj 1107 390 sig~;
#X obj 1237 390 sig~;
#X obj 1368 390 sig~;
#X obj 1497 390 sig~;
#X obj 1627 390 sig~;
#X obj 1755 390 sig~;
#X obj 1881 390 sig~;
#X text 591 605 Add points to buffer;
#X obj 980 535 dac~;
#X obj 980 485 nn~ crozzoli decode;
#X obj 980 390 sig~;
#X obj 2019 112 vsl 17 128 0 127 0 0 empty empty empty 0 -9 0 10 #e4e4e4 #4d4d4d #373737 0 1;
#X obj 2015 361 scale 0 127 -3 3, f 15;
#X obj 2015 390 sig~;
#X obj 2015 263 pack f 8;
#X obj 382 123 array define outputbuffer 9;
#X f 24;
#X msg 902 693 print;
#X msg 316 636 fit inputdata outputdata;
#X obj 111 795 list;
#X listbox 111 825 20 0 0 0 - - - 0;
#X text 224 824 error;
#X obj 59 744 route predictpoint fit;
#X obj 59 838 t b;
#X obj 59 875 array get outputbuffer;
#X obj 273 535 tabwrite inputbuffer;
#X msg 59 636 predictpoint inputbuffer outputbuffer;
#X obj 59 912 send synth;
#X obj 980 20 receive synth;
#X obj 980 48 unpack f f f f f f f f f;
#X obj 712 734 fluid.dataset outputdata;
#X obj 980 361 scale 0 127 -3 3;
#X msg 482 636 clear;
#X msg 957 693 clear;
#X obj 62 525 vradio 20 1 0 2 empty empty empty 0 -8 0 10 #e4e4e4 #4d4d4d #373737 0;
#X obj 59 588 gate, f 24;
#X obj 262 487 t b l;
#X text 87 522 Selecting points;
#X text 87 544 Predicting points;
#X obj 59 487 loadmess 0;
#X obj 228 308 route name nutriments, f 33;
#X obj 332 346 route sugars fibers energy carbohydrates fat proteins;
#X obj 332 441 pack f 0;
#X obj 400 441 pack f 1;
#X obj 467 441 pack f 2;
#X obj 536 441 pack f 3;
#X obj 605 441 pack f 4;
#X obj 675 441 pack f 5;
#X obj 852 112 vsl 17 128 0 127 0 0 empty empty empty 0 -9 0 10 #e4e4e4 #4d4d4d #373737 0 1;
#X obj 848 390 sig~;
#X obj 848 361 scale 0 127 -3 3;
#X text 753 167 Volume Slider, f 12;
#X obj 673 826 fluid.dataset;
#X obj 59 676 fluid.mlpregressor mlp -hiddenlayers 3 -activation 1 -outputactivation 1 -batchsize 1 -maxiter 10000 -learnrate 0.1 -validation 0;
#X obj 382 95 array define inputbuffer 6;
#X f 23;
#X connect 0 0 2 0;
#X connect 1 0 0 0;
#X connect 2 0 3 0;
#X connect 3 0 4 0;
#X connect 4 0 78 0;
#X connect 5 0 8 0;
#X connect 6 0 7 0;
#X connect 7 0 9 0 32.................h....Xy+++uH....17++++D....;
#X connect 7 0 32 0;
#X connect 8 0 9 0 32.................k....T6+++eI....09+++GE....;
#X connect 8 0 69 0;
#X connect 10 0 12 0;
#X connect 11 0 13 0;
#X connect 12 0 9 0 32.................h....Pq+++uH....z5++++D....;
#X connect 12 0 33 0;
#X connect 13 0 9 0 32.................h....Di+++uH....w3++++D....;
#X connect 13 0 34 0;
#X connect 14 0 18 0;
#X connect 15 0 19 0;
#X connect 16 0 20 0;
#X connect 17 0 21 0;
#X connect 18 0 9 0 32.................h.....a+++uH....v1++++D....;
#X connect 18 0 35 0;
#X connect 19 0 9 0 32.................h....3R+++uH....tz++++D....;
#X connect 19 0 36 0;
#X connect 20 0 9 0 32.................h....3J+++uH....tx++++D....;
#X connect 20 0 37 0;
#X connect 21 0 9 0 32.................h.....C+++uH....vv++++D....;
#X connect 21 0 38 0;
#X connect 22 0 24 0;
#X connect 23 0 68 0 32.................K.........vB.........XA....;
#X connect 25 0 26 0;
#X connect 26 0 27 0;
#X connect 26 0 22 0;
#X connect 26 0 23 0;
#X connect 27 0 26 1;
#X connect 32 0 39 0;
#X connect 33 0 40 0;
#X connect 34 0 41 0;
#X connect 35 0 42 0;
#X connect 36 0 43 0;
#X connect 37 0 44 0;
#X connect 38 0 45 0;
#X connect 39 0 48 16 32.................g.....J...PH....fB...vD....;
#X connect 39 0 48 1 32.................g....j4+++eH....Y9+++yD....;
#X connect 40 0 48 15 32.................l....3....fI....N....vD....;
#X connect 40 0 48 2 32.................g....rx+++eH....q7+++yD....;
#X connect 41 0 48 3 32.................f....Dq+++OH....w5+++yD....;
#X connect 41 0 48 14 32.................f....L2+++OH....y8+++yD....;
#X connect 42 0 48 4 32.................g....fj+++eH....H4+++yD....;
#X connect 42 0 48 13 32.................f.....t+++OH....f6+++yD....;
#X connect 43 0 48 12 32.................g....7j+++eH....O4+++yD....;
#X connect 43 0 48 5 32.................g....Lc+++eH....S2+++yD....;
#X connect 44 0 48 11 32.................g....Pb+++eH....D2+++yD....;
#X connect 44 0 48 6 32.................f....LV+++OH....i0+++yD....;
#X connect 45 0 48 10 32.................g....XS+++eH....1z+++yD....;
#X connect 45 0 48 7 32.................g....HP+++eH....Bz+++yD....;
#X connect 48 0 47 0;
#X connect 48 0 47 1;
#X connect 49 0 48 17 32.................h....rR...fH....qD...vD....;
#X connect 50 0 53 0;
#X connect 51 0 52 0;
#X connect 52 0 48 9 32.................g....7I+++eH....ex+++yD....;
#X connect 52 0 48 8 32.................f....HH+++OH....Bx+++yD....;
#X connect 53 0 9 0 32.................h....n59++uH....pt++++D....;
#X connect 53 0 51 0;
#X connect 55 0 68 0 32.................K....Lz++++B....C8+++aA....;
#X connect 55 0 24 0 32.................K....7o++++B....e5+++aA....;
#X connect 56 0 91 0 32.................E....Pu+++eA....z6++++.....;
#X connect 57 0 58 0;
#X connect 60 0 61 0;
#X connect 60 1 57 0;
#X connect 61 0 62 0;
#X connect 62 0 65 0;
#X connect 64 0 91 0;
#X connect 66 0 67 0;
#X connect 67 0 5 0 32.................Q.........PD.........DB....;
#X connect 67 1 6 0 32.................K....3F...vB....tA...DB....;
#X connect 67 2 10 0 32.................J....7M...fB....eC...DB....;
#X connect 67 3 11 0 32.................J....DU...fB....QE...jB....;
#X connect 67 4 14 0 32.................K....Db...vB....AG...DB....;
#X connect 67 5 15 0 32.................J....Hi...fB....xH...jB....;
#X connect 67 6 16 0 32.................K....Dp...vB....gJ...DB....;
#X connect 67 7 17 0 32.................J....3v...fB....NL...jB....;
#X connect 67 8 50 0 32.................K....H3...vB....BN...DB....;
#X connect 69 0 49 0;
#X connect 70 0 91 0 32.................K....nk++++B....Z4+++WA....;
#X connect 71 0 68 0 32.................K....vv++++B....L7+++aA....;
#X connect 71 0 24 0 32.................K....fl++++B....n4+++aA....;
#X connect 72 0 73 0;
#X connect 73 0 64 0;
#X connect 74 0 73 1;
#X connect 74 1 63 0;
#X connect 77 0 72 0;
#X connect 78 1 79 0;
#X connect 79 0 80 0;
#X connect 79 1 81 0;
#X connect 79 2 82 0;
#X connect 79 3 83 0;
#X connect 79 4 84 0;
#X connect 79 5 85 0;
#X connect 80 0 74 0;
#X connect 86 0 88 0;
#X connect 87 0 48 0;
#X connect 88 0 87 0;
#X connect 91 0 60 0;
