#N canvas 827 239 527 327 12;
#X msg 414 686 fit xydata paramsdata;
#X obj 305 587 tabwrite xybuf;
#X msg 535 579 addpoint \$1 xybuf;
#X msg 688 579 addpoint \$1 paramsbuf;
#X obj 535 603 fluid.dataset xydata;
#X obj 534 539 f, f 7;
#X obj 534 515 bng 19 250 50 0 empty empty empty 0 -10 0 12 #fcfcfc #000000 #000000;
#X msg 863 579 print;
#X msg 913 579 clear;
#X obj 202 518 vradio 19 1 0 2 empty empty empty 0 -10 0 12 #fcfcfc #000000 #000000 0;
#X obj 201 853 array get paramsbuf;
#X text 84 510 selecting points;
#X text 77 529 predicting points;
#X obj 688 603 fluid.dataset paramsdata;
#X msg 201 686 predictpoint xybuf paramsbuf;
#X obj 201 805 t b;
#X obj 201 777 route predictpoint fit;
#X msg 1147 579 \; pd dsp \$1;
#X obj 1147 552 tgl 19 0 empty empty empty 0 -10 0 12 #fcfcfc #000000 #000000 0 1;
#X obj 603 539 + 1;
#X obj 276 805 list;
#X listbox 276 829 20 0 0 0 - - - 0;
#X text 423 821 error;
#X obj 201 711 fluid.mlpregressor mlp -hiddenlayers 5 -activation 1 -outputactivation 1 -batchsize 1 -maxiter 10000 -learnrate 0.1 -validation 0, f 42;
#X obj 202 629 spigot;
#X obj 259 537 t b l;
#X obj 99 132 netreceive -u -b;
#X msg 99 92 listen 5005;
#X obj 99 175 oscparse;
#X obj 99 214 list trim;
#X obj 99 249 route product;
#X text 99 34 OSC Port and Message Routing, f 17;
#X obj 99 290 route name nutriments, f 33;
#X obj 203 423 pack f 0;
#X obj 271 423 pack f 1;
#X obj 338 423 pack f 2;
#X obj 407 423 pack f 3;
#X obj 476 423 pack f 4;
#X obj 203 328 route sugars energy carbohydrates fat proteins;
#X obj 1246 247 vsl 17 128 0 1 0 1 empty empty empty 0 -9 0 10 #e4e4e4 #4d4d4d #373737 5 0;
#X obj 1373 247 vsl 17 128 0 1 0 1 empty empty empty 0 -9 0 10 #e4e4e4 #4d4d4d #373737 35 0;
#X obj 1503 247 vsl 17 128 0 1 0 1 empty empty empty 0 -9 0 10 #e4e4e4 #4d4d4d #373737 12 0;
#X obj 1634 247 vsl 17 128 0 1 0 1 empty empty empty 0 -9 0 10 #e4e4e4 #4d4d4d #373737 57 0;
#X obj 1763 247 vsl 17 128 0 1 0 1 empty empty empty 0 -9 0 10 #e4e4e4 #4d4d4d #373737 41 0;
#X obj 1893 247 vsl 17 128 0 1 0 1 empty empty empty 0 -9 0 10 #e4e4e4 #4d4d4d #373737 55 0;
#X obj 2021 247 vsl 17 128 0 1 0 1 empty empty empty 0 -9 0 10 #e4e4e4 #4d4d4d #373737 28 0;
#X obj 2147 247 vsl 17 128 0 1 0 1 empty empty empty 0 -9 0 10 #e4e4e4 #4d4d4d #373737 42 0;
#X text 1093 135 Neural Network Synth Sliders, f 17;
#X obj 1369 449 sig~;
#X obj 1499 449 sig~;
#X obj 1630 449 sig~;
#X obj 1759 449 sig~;
#X obj 1889 449 sig~;
#X obj 2017 449 sig~;
#X obj 2143 449 sig~;
#X obj 1242 594 dac~;
#X obj 1242 544 nn~ crozzoli decode;
#X obj 1242 449 sig~;
#X obj 2281 247 vsl 17 128 0 1 0 1 empty empty empty 0 -9 0 10 #e4e4e4 #4d4d4d #373737 12 0;
#X obj 2277 449 sig~;
#X obj 1242 143 receive synth;
#X obj 1242 171 unpack f f f f f f f f f;
#X obj 1114 247 vsl 17 128 -3 3 0 1 empty empty empty 0 -9 0 10 #e4e4e4 #4d4d4d #373737 0 0;
#X obj 1110 449 sig~;
#X text 1015 284 Volume Slider, f 12;
#X obj 913 507 tabwrite paramsbuf;
#N canvas 353 378 783 300 packslider 0;
#X obj 6 55 pack f 0;
#X obj 70 55 pack f 1;
#X obj 133 55 pack f 2;
#X obj 197 55 pack f 3;
#X obj 262 55 pack f 4;
#X obj 324 54 pack f 5;
#X obj 388 54 pack f 6;
#X obj 451 54 pack f 7;
#X obj 515 54 pack f 8;
#X obj 6 102 outlet;
#X obj 7 27 inlet;
#X obj 263 27 inlet;
#X obj 133 29 inlet;
#X obj 196 27 inlet;
#X obj 70 28 inlet;
#X obj 322 24 inlet;
#X obj 448 26 inlet;
#X obj 511 24 inlet;
#X obj 385 25 inlet;
#X connect 0 0 9 0;
#X connect 1 0 9 0;
#X connect 2 0 9 0;
#X connect 3 0 9 0;
#X connect 4 0 9 0;
#X connect 5 0 9 0;
#X connect 6 0 9 0;
#X connect 7 0 9 0;
#X connect 8 0 9 0;
#X connect 10 0 0 0;
#X connect 11 0 4 0;
#X connect 12 0 2 0;
#X connect 13 0 3 0;
#X connect 14 0 1 0;
#X connect 15 0 5 0;
#X connect 16 0 7 0;
#X connect 17 0 8 0;
#X connect 18 0 6 0;
#X restore 913 484 pd packslider;
#X f 25;
#X obj 913 528 array define paramsbuf 9;
#X obj 201 898 send synth;
#X obj 203 378 scale 0 100 0.1 1;
#X obj 327 378 scale 0 3000 0.1 1;
#X obj 451 378 scale 0 100 0.1 1;
#X obj 575 378 scale 0 50 0.1 1;
#X obj 699 378 scale 0 20 0.1 1;
#X msg 572 686 clear;
#X obj 1242 421 scale 0 1 -3 3;
#X obj 1369 418 scale 0 1 -3 3;
#X obj 1499 418 scale 0 1 -3 3;
#X obj 1630 418 scale 0 1 -3 3;
#X obj 1759 418 scale 0 1 -3 3;
#X obj 1889 418 scale 0 1 -3 3;
#X obj 2017 418 scale 0 1 -3 3;
#X obj 2143 418 scale 0 1 -3 3;
#X obj 2277 418 scale 0 1 -3 3;
#X obj 305 608 array define xybuf 5;
#X obj 863 717 text define foodData;
#X obj 863 741 text define synthData;
#X obj 630 717 fluid.ds2text xydata foodData;
#X obj 630 741 fluid.ds2text paramsdata synthData;
#X obj 636 663 bng 25 250 50 0 empty empty empty 17 7 0 10 #e4e4e4 #4d4d4d #373737;
#X msg 706 477 read synthData.json;
#X msg 558 477 read foodData.json;
#X connect 0 0 23 0;
#X connect 2 0 4 0;
#X connect 3 0 13 0;
#X connect 5 0 2 0;
#X connect 5 0 3 0;
#X connect 5 0 19 0;
#X connect 6 0 5 0;
#X connect 7 0 4 0;
#X connect 7 0 13 0;
#X connect 8 0 13 0;
#X connect 8 0 4 0;
#X connect 9 0 24 1;
#X connect 10 0 68 0;
#X connect 14 0 23 0;
#X connect 15 0 10 0;
#X connect 16 0 15 0;
#X connect 16 1 20 0;
#X connect 18 0 17 0;
#X connect 19 0 5 1;
#X connect 20 0 21 0;
#X connect 23 0 16 0;
#X connect 24 0 14 0;
#X connect 25 0 24 0;
#X connect 25 1 1 0;
#X connect 26 0 28 0;
#X connect 27 0 26 0;
#X connect 28 0 29 0;
#X connect 29 0 30 0;
#X connect 30 0 32 0;
#X connect 32 1 38 0;
#X connect 33 0 25 0 32.................7....jC....O....4....fG....;
#X connect 34 0 25 0 32.................7....X++++OO....1++++iG....;
#X connect 35 0 25 0 32.................8....L6+++eO....y9+++iG....;
#X connect 36 0 25 0 32.................7....31+++OO....t8+++iG....;
#X connect 37 0 25 0 32.................8....jx+++eO....o7+++iG....;
#X connect 38 0 69 0 32.................P..........D.........7A....;
#X connect 38 1 70 0 32.................P....fD....D....HA...7A....;
#X connect 38 2 71 0 32.................P.....I....D....PB...7A....;
#X connect 38 3 72 0 32.................P....bM....D....WC...7A....;
#X connect 38 4 73 0 32.................P....7Q....D....eD...7A....;
#X connect 39 0 66 0 32.................b....fq+++OG....35+++KG....;
#X connect 39 0 75 0;
#X connect 40 0 66 1 32.................d....rj+++uG....K4+++KG....;
#X connect 40 0 76 0;
#X connect 41 0 66 2 32.................e....vc++++G....b2+++KG....;
#X connect 41 0 77 0;
#X connect 42 0 66 3 48.................c....Xq+++eG....15++++A....a8+++e....vV+++ub....;
#X connect 42 0 78 0;
#X connect 43 0 66 4 32.................d....3O+++uG....9y+++KG....;
#X connect 43 0 79 0;
#X connect 44 0 66 5 48.................c....jc+++eG....Y2+++2A...fi7+++c....3H+++ub....;
#X connect 44 0 80 0;
#X connect 45 0 66 6 32.................b....DB+++OG....gv+++KG....;
#X connect 45 0 81 0;
#X connect 46 0 66 7 32.................d....X69++uG....1t+++KG....;
#X connect 46 0 82 0;
#X connect 48 0 56 16 32.................g.....J...PH....fB...vD....;
#X connect 48 0 56 1 32.................g....j4+++eH....Y9+++yD....;
#X connect 49 0 56 15 32.................l....3....fI....N....vD....;
#X connect 49 0 56 2 32.................g....rx+++eH....q7+++yD....;
#X connect 50 0 56 3 32.................f....Dq+++OH....w5+++yD....;
#X connect 50 0 56 14 32.................f....L2+++OH....y8+++yD....;
#X connect 51 0 56 4 32.................g....fj+++eH....H4+++yD....;
#X connect 51 0 56 13 32.................f.....t+++OH....f6+++yD....;
#X connect 52 0 56 12 32.................g....7j+++eH....O4+++yD....;
#X connect 52 0 56 5 32.................g....Lc+++eH....S2+++yD....;
#X connect 53 0 56 11 32.................g....Pb+++eH....D2+++yD....;
#X connect 53 0 56 6 32.................f....LV+++OH....i0+++yD....;
#X connect 54 0 56 10 32.................g....XS+++eH....1z+++yD....;
#X connect 54 0 56 7 32.................g....HP+++eH....Bz+++yD....;
#X connect 56 0 55 0;
#X connect 56 0 55 1;
#X connect 57 0 56 17 32.................h....rR...fH....qD...vD....;
#X connect 58 0 66 8 48.................c....r89++eG....au+++2A...vP6+++c....Lz9++ub....;
#X connect 58 0 83 0;
#X connect 59 0 56 9 32.................g....7I+++eH....ex+++yD....;
#X connect 59 0 56 8 32.................f....HH+++OH....Bx+++yD....;
#X connect 60 0 61 0;
#X connect 61 0 39 0 32.................Q.........PD.........DB....;
#X connect 61 1 40 0 32.................K....3F...vB....tA...DB....;
#X connect 61 2 41 0 32.................J....7M...fB....eC...DB....;
#X connect 61 3 42 0 32.................J....DU...fB....QE...jB....;
#X connect 61 4 43 0 32.................K....Db...vB....AG...DB....;
#X connect 61 5 44 0 32.................J....Hi...fB....xH...jB....;
#X connect 61 6 45 0 32.................K....Dp...vB....gJ...DB....;
#X connect 61 7 46 0 32.................J....3v...fB....NL...jB....;
#X connect 61 8 58 0 32.................K....H3...vB....BN...DB....;
#X connect 62 0 63 0;
#X connect 63 0 56 0;
#X connect 66 0 65 0;
#X connect 69 0 33 0 32.................M.........PC.........nA....;
#X connect 70 0 34 0 32.................M....j7+++eC....I++++qA....;
#X connect 71 0 35 0 32.................I.....4+++eB....P9+++qA....;
#X connect 72 0 36 0 32.................I....j0+++eB....Y8+++qA....;
#X connect 73 0 37 0 32.................H....Hx+++OB....h7+++qA....;
#X connect 74 0 23 0;
#X connect 75 0 57 0;
#X connect 76 0 48 0;
#X connect 77 0 49 0;
#X connect 78 0 50 0;
#X connect 79 0 51 0;
#X connect 80 0 52 0;
#X connect 81 0 53 0;
#X connect 82 0 54 0;
#X connect 83 0 59 0;
#X connect 89 0 87 0;
#X connect 89 0 88 0;
#X connect 90 0 13 0;
#X connect 91 0 4 0;
